<svg xmlns:mydata="http://www.w3.org/2000/svg" xmlns="http://www.w3.org/2000/svg" xmlns:xlink="http://www.w3.org/1999/xlink" mydata:contrastcolor="ffffff" mydata:template="SingleColorHex1" mydata:presentation="2.5" mydata:layouttype="undefined" mydata:specialfontid="undefined" mydata:id1="658" mydata:id2="372" mydata:companyname="ManBook" mydata:companytagline="" version="1.1" width="440" height="60" style=""><rect id="backgroundrect" width="100%" height="100%" x="0" y="0" fill="none" stroke="none" class="" style=""/>
        
<g class="currentLayer" style=""><title>Layer 1</title><g fill="#00afd7" fill-rule="none" stroke="none" stroke-width="1" stroke-linecap="butt" stroke-linejoin="miter" stroke-miterlimit="10" stroke-dasharray="" stroke-dashoffset="0" font-family="none" font-weight="none" font-size="none" text-anchor="none" style="mix-blend-mode: normal;" id="svg_1" class="">
        <g data-paper-data="{&quot;isGlobalGroup&quot;:true,&quot;bounds&quot;:{&quot;x&quot;:64.99999999999997,&quot;y&quot;:214.91506616167837,&quot;width&quot;:420,&quot;height&quot;:40.16986767664329}}" id="svg_2">
            <g data-paper-data="{&quot;isPrimaryText&quot;:true}" fill-rule="nonzero" id="svg_3">
                <path d="M110.1484061845398,48.79340269376755 v-36.22279 h-6.00263 v36.22279 zM153.9262361845398,12.57060269376754 h-7.50329 l-17.38694,21.88892 l-14.17864,-17.85266 v8.33124 l14.12689,17.85266 l18.7841,-23.59656 h0.15524000000000027 v29.59919 h6.00263 z" data-paper-data="{&quot;glyphName&quot;:&quot;M&quot;,&quot;glyphIndex&quot;:0,&quot;firstGlyphOfWord&quot;:true,&quot;word&quot;:1}" id="svg_4"/>
                <path d="M166.2419861845398,35.23572269376754 l-7.14106,13.55767 h6.57185 l4.19149,-8.12425 h24.37276 l4.19149,8.12425 h6.57185 l-19.19808,-36.22279 h-7.50329 l-9.57317,18.0079 h6.5201 l6.83058,-12.83322 l9.26269,17.54218 z" data-paper-data="{&quot;glyphName&quot;:&quot;A&quot;,&quot;glyphIndex&quot;:1,&quot;word&quot;:1}" id="svg_5"/>
                <path d="M210.1750561845398,12.57060269376754 v36.22279 h6.00263 v-36.22279 zM251.3137961845398,12.57060269376754 h-6.00263 v29.70269 l-24.42451,-26.02866 v7.91727 l22.92385,24.6315 h7.50329 z" data-paper-data="{&quot;glyphName&quot;:&quot;N&quot;,&quot;glyphIndex&quot;:2,&quot;word&quot;:1}" id="svg_6"/>
                <path d="M292.8665161845398,30.112782693767542 c3.15656,-1.7593900000000002 4.70896,-4.34673 4.70896,-7.65853 c0,-3.00132 -1.03494,-5.38167 -3.15656,-7.19281 c-2.12162,-1.81114 -4.9677,-2.69084 -8.64172,-2.69084 h-29.288710000000002 v26.08041 h6.00263 v-5.53691 h23.8553 c4.39848,0 6.57185,1.81114 6.57185,5.32992 c0,3.3118 -2.48385,4.9677 -7.50329,4.9677 l-28.92649,-0.05175000000000006 v5.43342 h28.87474 c9.15919,0 13.71291,-3.15656 13.71291,-9.521419999999999 c0,-4.70896 -2.06987,-7.76203 -6.20962,-9.15919 zM290.0204361845398,26.283522693767537 c-1.08668,0.98319 -2.48385,1.4489100000000001 -4.13975,1.4489100000000001 h-23.38957 v-9.78015 h23.59656 c1.7593900000000002,0 3.10481,0.46572 4.13975,1.34542 c0.98319,0.8797000000000009 1.5006599999999999,2.01813 1.5006599999999999,3.51879 c0,1.34542 -0.5692200000000006,2.5356 -1.7076500000000001,3.46704 z" data-paper-data="{&quot;glyphName&quot;:&quot;B&quot;,&quot;glyphIndex&quot;:3,&quot;word&quot;:1}" id="svg_7"/>
                <path d="M337.2135561845398,17.84878269376756 c-3.67403,-3.88101 -8.48648,-5.89914 -14.38562,-5.89914 c-5.79565,0 -10.65985,2.01813 -14.38562,5.95089 c-3.2083,3.41529 -4.8642,7.65853 -4.8642,12.72972 c0,5.01944 1.6559000000000008,9.26269 4.8642,12.72972 c3.7257700000000002,3.93276 8.58998,5.89914 14.38562,5.89914 c5.84739,0 10.65985,-1.91463 14.33388,-5.84739 c3.26005,-3.41529 4.9159500000000005,-7.65853 4.9159500000000005,-12.78147 c0,-5.12294 -1.6559000000000008,-9.36618 -4.8642,-12.78147 zM332.4011061845398,40.25517269376755 c-2.38035,2.4321 -5.64041,3.62228 -9.57317,3.62228 c-3.88101,0 -7.14106,-1.24192 -9.57317,-3.67403 c-2.5356,-2.48385 -3.82927,-5.69215 -3.82927,-9.57317 c0,-3.62228 1.13843,-6.6236 3.36354,-9.0557 c2.5356,-2.79433 5.84739,-4.19149 10.03889,-4.19149 c3.88101,0 7.14106,1.19018 9.57317,3.62228 c2.5356,2.38035 3.77752,5.58866 3.77752,9.62491 c0,4.03625 -1.24192,7.24456 -3.77752,9.62491 z" data-paper-data="{&quot;glyphName&quot;:&quot;O&quot;,&quot;glyphIndex&quot;:4,&quot;word&quot;:1}" id="svg_8"/>
                <path d="M379.9047061845398,17.84878269376756 c-3.67403,-3.88101 -8.48648,-5.89914 -14.38562,-5.89914 c-5.79565,0 -10.65985,2.01813 -14.38562,5.95089 c-3.2083,3.41529 -4.8642,7.65853 -4.8642,12.72972 c0,5.01944 1.6559000000000008,9.26269 4.8642,12.72972 c3.7257700000000002,3.93276 8.58998,5.89914 14.38562,5.89914 c5.84739,0 10.65985,-1.91463 14.33388,-5.84739 c3.26005,-3.41529 4.9159500000000005,-7.65853 4.9159500000000005,-12.78147 c0,-5.12294 -1.6559000000000008,-9.36618 -4.8642,-12.78147 zM375.0922461845398,40.25517269376755 c-2.38035,2.4321 -5.64041,3.62228 -9.57317,3.62228 c-3.88101,0 -7.14106,-1.24192 -9.57317,-3.67403 c-2.5356,-2.48385 -3.82927,-5.69215 -3.82927,-9.57317 c0,-3.62228 1.13843,-6.6236 3.36354,-9.0557 c2.5356,-2.79433 5.84739,-4.19149 10.03889,-4.19149 c3.88101,0 7.14106,1.19018 9.57317,3.62228 c2.5356,2.38035 3.77752,5.58866 3.77752,9.62491 c0,4.03625 -1.24192,7.24456 -3.77752,9.62491 z" data-paper-data="{&quot;glyphName&quot;:&quot;O&quot;,&quot;glyphIndex&quot;:5,&quot;word&quot;:1}" id="svg_9"/>
                <path d="M395.6357461845398,48.79340269376755 v-10.97033 l34.04942,-25.25246 h-8.64172 l-25.4077,18.7841 v-18.7841 h-6.00263 v36.22279 zM431.7032961845398,48.79340269376755 l-18.0079,-19.71555 l-4.55372,3.41529 l14.7996,16.30026 z" data-paper-data="{&quot;glyphName&quot;:&quot;K&quot;,&quot;glyphIndex&quot;:6,&quot;lastGlyphOfWord&quot;:true,&quot;word&quot;:1}" id="svg_10"/>
            </g>
            <g data-paper-data="{&quot;fillRule&quot;:&quot;evenodd&quot;,&quot;fillRuleOriginal&quot;:&quot;evenodd&quot;,&quot;isIcon&quot;:true,&quot;iconStyle&quot;:&quot;standalone&quot;,&quot;selectedEffects&quot;:{&quot;container&quot;:&quot;&quot;,&quot;transformation&quot;:&quot;&quot;,&quot;pattern&quot;:&quot;&quot;},&quot;bounds&quot;:{&quot;x&quot;:64.99999999999997,&quot;y&quot;:214.91506616167837,&quot;width&quot;:54.15320836267982,&quot;height&quot;:40.16986767664329},&quot;iconType&quot;:&quot;icon&quot;,&quot;rawIconId&quot;:&quot;47561ad7-5d51-4e24-99cc-bdbca518be40&quot;,&quot;isSvgStockIcon&quot;:&quot;true&quot;,&quot;combineTerms&quot;:&quot;book&quot;,&quot;combineTermsExtended&quot;:{&quot;icon&quot;:[&quot;book&quot;]},&quot;isDetailed&quot;:&quot;false&quot;,&quot;suitableAsStandaloneIcon&quot;:true}" fill-rule="evenodd" id="svg_11">
                <path d="M38.0841361845398,16.26944269376756 c0.10964000000000008,0.04873000000000005 0.21014000000000016,0.08223000000000016 0.32588000000000067,0.015230000000000025 c-0.054820000000000084,-0.0670000000000001 -0.1005,-0.13705 -0.15532,-0.18882000000000004 c-0.28019,-0.2741 -0.5512400000000006,-0.5573400000000006 -0.8466600000000006,-0.81621 c-0.52688,-0.4598800000000004 -1.05376,-0.91976 -1.60196,-1.35222 c-0.60606,-0.47815 -1.25781,-0.8953900000000008 -1.94611,-1.24258 c-0.3989700000000006,-0.20101000000000016 -0.80098,-0.3989700000000006 -1.22127,-0.5542900000000006 c-0.44161000000000034,-0.16446000000000033 -0.90148,-0.29846000000000034 -1.3613600000000001,-0.3989700000000006 c-0.44161000000000034,-0.09746000000000017 -0.8923500000000006,-0.14314000000000004 -1.3430900000000001,-0.19796000000000033 c-0.3959200000000006,-0.04873000000000005 -0.79793,-0.1005 -1.1969,-0.10660000000000008 c-0.6152000000000006,-0.00825000000000001 -1.23287,0.0058200000000000075 -1.8486500000000001,0.01983 c-0.06703000000000012,0.0015200000000000031 -0.13403,0.0030500000000000063 -0.20101000000000016,0.004540000000000009 c-0.36547000000000046,0.009140000000000013 -0.7339800000000006,0.03655000000000001 -1.09944,0.054820000000000084 c-0.12182000000000008,0.0060900000000000095 -0.24364000000000016,0.015230000000000025 -0.36547000000000046,0.027410000000000042 c-0.33806000000000047,0.03350000000000005 -0.673070000000001,0.07309000000000009 -1.00808,0.10660000000000008 c-0.23755,0.02436000000000004 -0.47815,0.03959000000000004 -0.7157100000000006,0.05787000000000006 c-0.46597000000000033,0.03655000000000001 -0.9288900000000007,0.08223000000000016 -1.39182,0.10355 c-0.25769,0.010290000000000013 -0.5154,-0.0033800000000000063 -0.77308,-0.01706000000000004 c-0.046870000000000106,-0.002470000000000005 -0.09371000000000017,-0.00496000000000001 -0.14058,-0.0073100000000000075 c-0.2071,-0.009140000000000013 -0.41419,-0.01827 -0.6182500000000006,-0.05787000000000006 c-0.4690200000000003,-0.08832000000000012 -0.9410700000000006,-0.17055 -1.40095,-0.30151000000000033 c-0.670020000000001,-0.19187 -1.32786,-0.41724 -1.98874,-0.6365200000000006 c-0.22842000000000026,-0.07614000000000008 -0.45379,-0.1736 -0.6791600000000007,-0.2619200000000003 v1.47709 c0.40676,0 0.81249,-0.0003400000000000005 1.2175500000000001,-0.0006700000000000014 c0.80808,-0.0007000000000000013 1.6134400000000002,-0.0013700000000000023 2.41884,0.0006700000000000014 c0.21319000000000016,0.0030500000000000063 0.4263800000000005,0.01827 0.6395700000000006,0.027410000000000042 c0.3959200000000006,0.01827 0.7948900000000007,0.03350000000000005 1.19386,0.054820000000000084 c0.2649600000000003,0.015230000000000025 0.53297,0.03350000000000005 0.79793,0.054820000000000084 c0.43247000000000047,0.03350000000000005 0.8649400000000009,0.0670000000000001 1.2943600000000002,0.10964000000000008 c0.4081,0.03959000000000004 0.81621,0.08528000000000012 1.22127,0.13705 c0.5207900000000006,0.07005 1.04462,0.12791000000000016 1.55932,0.22537000000000001 c0.7309300000000006,0.13705 1.4649100000000002,0.28324 2.1867,0.4720600000000003 c1.03853,0.2741 2.07097,0.5817000000000007 3.10037,0.8923500000000006 c0.61216,0.18578000000000017 1.21517,0.3959200000000006 1.81515,0.6152000000000006 c0.7370200000000008,0.27105 1.471,0.5573400000000006 2.19889,0.8527500000000008 c0.6487000000000009,0.2649600000000003 1.2913100000000002,0.5512400000000006 1.93392,0.8314400000000006 zM61.053676184539796,11.96608269376756 v-1.44664 c-0.37156000000000033,0.14009000000000016 -0.7339800000000006,0.27715 -1.10554,0.4050600000000003 c-0.8618900000000009,0.31674 -1.74205,0.56952 -2.6435400000000002,0.7309300000000006 c-0.41724,0.07309000000000009 -0.84057,0.12791000000000016 -1.26086,0.13705 c-0.4114500000000003,0.009740000000000023 -0.8250400000000007,-0.01166000000000001 -1.23862,-0.03310000000000006 c-0.10385,-0.005360000000000006 -0.20771000000000023,-0.010750000000000018 -0.31156000000000034,-0.01562000000000001 c-0.22233000000000017,-0.009140000000000013 -0.4477000000000003,-0.03350000000000005 -0.673070000000001,-0.054820000000000084 c-0.3289200000000006,-0.03350000000000005 -0.6547900000000012,-0.07614000000000008 -0.98067,-0.10660000000000008 c-0.24974000000000027,-0.02436000000000004 -0.5025099999999995,-0.03959000000000004 -0.7553000000000006,-0.05787000000000006 c-0.47815,-0.03655000000000001 -0.95326,-0.09441000000000012 -1.43141,-0.10355 c-0.6822000000000009,-0.01218000000000001 -1.36745,0.0060900000000000095 -2.04966,0.02436000000000004 c-0.3350100000000005,0.009140000000000013 -0.6669800000000008,0.04264000000000006 -0.99894,0.08223000000000016 c-0.4477000000000003,0.054820000000000084 -0.8984400000000008,0.10660000000000008 -1.3430900000000001,0.19492000000000026 c-0.7157100000000006,0.14314000000000004 -1.404,0.3867800000000004 -2.06488,0.6974300000000007 c-0.79793,0.3746000000000003 -1.55323,0.8223 -2.25371,1.35527 c-0.4933800000000006,0.3746000000000003 -0.96848,0.7766200000000006 -1.44664,1.1694900000000001 c-0.134,0.10964000000000008 -0.25583,0.23146000000000017 -0.3806900000000003,0.35024 c-0.3319600000000005,0.3228300000000004 -0.6608900000000012,0.6426100000000008 -0.99285,0.9654400000000006 c0.009140000000000013,0.015230000000000025 0.01827,0.03350000000000005 0.027410000000000042,0.04873000000000005 c0.027410000000000042,-0.0020400000000000036 0.05573000000000004,-0.001340000000000003 0.0843600000000001,-0.0006700000000000014 c0.05634000000000004,0.001340000000000003 0.11268000000000009,0.002680000000000006 0.15928000000000023,-0.017600000000000025 c0.691340000000001,-0.29237000000000046 1.37354,-0.60911 2.07097,-0.88626 c0.95021,-0.3776500000000003 1.90652,-0.7400700000000007 2.87195,-1.08117 c0.7766200000000006,-0.2741 1.56846,-0.5207900000000006 2.3603,-0.7522500000000006 c0.77052,-0.22537000000000001 1.5471400000000002,-0.43247000000000047 2.32985,-0.6182500000000006 c0.8740700000000008,-0.2071 1.7542400000000002,-0.3898300000000004 2.64963,-0.49947000000000047 c0.54515,-0.06396000000000009 1.0842100000000001,-0.14923000000000017 1.6293700000000002,-0.21319000000000016 c0.4020100000000003,-0.04568000000000007 0.8070700000000006,-0.07919000000000014 1.21213,-0.10964000000000008 c0.41419,-0.030460000000000053 0.8314400000000006,-0.05787000000000006 1.24563,-0.08223000000000016 c0.3898300000000004,-0.02436000000000004 0.77966,-0.04568000000000007 1.1694900000000001,-0.054820000000000084 c0.5969300000000006,-0.015230000000000025 1.19386,-0.02436000000000004 1.79078,-0.027410000000000042 c0.4833300000000003,-0.0020400000000000036 0.9678700000000008,-0.001340000000000003 1.45212,-0.0006700000000000014 h0.0003000000000000005 c0.24182,0.0003400000000000005 0.48363,0.0006700000000000014 0.7251500000000006,0.0006700000000000014 zM14.7247561845398,12.215822693767535 c0.07005,-0.009140000000000013 0.14619000000000001,-0.02436000000000004 0.21928000000000017,-0.027410000000000042 c0.54211,-0.01218000000000001 1.0842100000000001,-0.02132000000000004 1.6263200000000002,-0.027410000000000042 c0.81621,-0.009140000000000013 1.6324200000000002,-0.02132000000000004 2.44862,-0.027410000000000042 c0.3806900000000003,0 0.76443,0.01218000000000001 1.14513,0.027410000000000042 c0.43856000000000034,0.015230000000000025 0.88016,0.03350000000000005 1.3187200000000001,0.054820000000000084 c0.44161000000000034,0.02436000000000004 0.88626,0.04873000000000005 1.32786,0.08223000000000016 c0.41724,0.030460000000000053 0.83448,0.0670000000000001 1.25172,0.10964000000000008 c0.4020100000000003,0.03959000000000004 0.8070700000000006,0.07309000000000009 1.20604,0.14009000000000016 c0.8314400000000006,0.134 1.6598300000000008,0.27715 2.48517,0.4355100000000004 c1.08117,0.2071 2.14102,0.48729 3.1917400000000002,0.81316 c0.8070700000000006,0.24974000000000027 1.6141400000000008,0.4964300000000003 2.40903,0.77966 c0.93803,0.3319600000000005 1.8669200000000008,0.691340000000001 2.79277,1.05681 c0.5969300000000006,0.23451000000000016 1.18167,0.5025099999999995 1.8029700000000002,0.77052 c-0.021750000000000037,0.005450000000000005 -0.03959000000000004,0.011270000000000025 -0.054850000000000114,0.01623 c-0.027410000000000042,0.00892 -0.04629000000000006,0.01511000000000001 -0.06393000000000008,0.011180000000000015 c-0.32588000000000067,-0.05787000000000006 -0.6517500000000009,-0.11878000000000014 -0.9745799999999993,-0.17664000000000016 c-0.3867800000000004,-0.07005 -0.7766200000000006,-0.13705 -1.1634,-0.20405 c-0.3867800000000004,-0.0670000000000001 -0.7766200000000006,-0.13705 -1.1634,-0.20405 c-0.3959200000000006,-0.07005 -0.7948900000000007,-0.13705 -1.19081,-0.2071 c-0.37156000000000033,-0.06396000000000009 -0.7400700000000007,-0.12791000000000016 -1.11162,-0.19492000000000026 c-0.3532800000000003,-0.060910000000000075 -0.70352,-0.12487000000000002 -1.05681,-0.18882000000000004 c-0.4964300000000003,-0.09137000000000012 -0.99285,-0.18578000000000017 -1.49232,-0.27105 c-0.5512400000000006,-0.09746000000000017 -1.10554,-0.18273000000000023 -1.6567800000000008,-0.28019 c-0.53602,-0.09441000000000012 -1.07203,-0.20101000000000016 -1.6111,-0.29846000000000034 c-0.5512400000000006,-0.09746000000000017 -1.10554,-0.18273000000000023 -1.6567800000000008,-0.28019 c-0.53602,-0.09441000000000012 -1.07203,-0.20101000000000016 -1.6111,-0.29846000000000034 c-0.6517500000000009,-0.11573000000000017 -1.30654,-0.21928000000000017 -1.95829,-0.3350100000000005 c-0.6426100000000008,-0.11268000000000009 -1.28522,-0.23755 -1.9278300000000002,-0.35024 c-0.5512400000000006,-0.09746000000000017 -1.10554,-0.18273000000000023 -1.6567800000000008,-0.28019 c-0.53602,-0.09441000000000012 -1.07203,-0.20101000000000016 -1.6111,-0.29846000000000034 c-0.39288000000000073,-0.07005 -0.7857500000000006,-0.13096000000000016 -1.17863,-0.19492000000000026 c-0.08528000000000012,-0.0030500000000000063 -0.11573000000000017,-0.04873000000000005 -0.08528000000000012,-0.15228000000000017 zM62.83531618453979,12.221912693767536 c0.027410000000000042,0.11268000000000009 -0.01827,0.14314000000000004 -0.10660000000000008,0.15837 c-0.45074,0.07614000000000008 -0.8984400000000008,0.15837 -1.34918,0.23755 c-0.3959200000000006,0.07005 -0.7948900000000007,0.134 -1.19081,0.20101000000000016 c-0.3228300000000004,0.054820000000000084 -0.6456600000000008,0.10964000000000008 -0.9654400000000006,0.16750000000000026 c-0.3959200000000006,0.07005 -0.7918400000000007,0.14314000000000004 -1.18776,0.21623000000000023 c-0.4964300000000003,0.09137000000000012 -0.99285,0.18578000000000017 -1.49232,0.27105 c-0.5512400000000006,0.09746000000000017 -1.10554,0.18273000000000023 -1.6567800000000008,0.28019 c-0.53602,0.09441000000000012 -1.07203,0.20101000000000016 -1.6111,0.29846000000000034 c-0.5908400000000009,0.10355 -1.18167,0.20101000000000016 -1.77251,0.3045500000000003 c-0.5512400000000006,0.09746000000000017 -1.09944,0.20101000000000016 -1.6506900000000013,0.29846000000000034 c-0.5938800000000006,0.10355 -1.19081,0.20101000000000016 -1.78774,0.3045500000000003 c-0.4903300000000003,0.08528000000000012 -0.97762,0.17969000000000004 -1.4649100000000002,0.26801 c-0.4355100000000004,0.07614000000000008 -0.8740700000000008,0.14619000000000001 -1.30959,0.22537000000000001 c-0.4964300000000003,0.08832000000000012 -0.99285,0.18273000000000023 -1.49232,0.27105 c-0.5512400000000006,0.09746000000000017 -1.10554,0.18273000000000023 -1.6567800000000008,0.28019 c-0.53297,0.09441000000000012 -1.0629,0.19796000000000033 -1.5958700000000001,0.2954200000000004 c-0.27715,0.05177000000000006 -0.5542900000000006,0.09441000000000012 -0.83448,0.14314000000000004 c-0.01797000000000004,0.0022200000000000037 -0.03563000000000005,-0.00043000000000000097 -0.07035,-0.005630000000000001 c-0.012490000000000006,-0.0018900000000000024 -0.027410000000000042,-0.004110000000000003 -0.04538000000000006,-0.006550000000000012 c0.2862800000000003,-0.13096000000000016 0.53297,-0.25278 0.7857500000000006,-0.35937000000000047 c0.5512400000000006,-0.23146000000000017 1.10554,-0.4598800000000004 1.6628700000000007,-0.6791600000000007 c0.62738,-0.24669000000000016 1.25781,-0.48729 1.89433,-0.7126600000000006 c0.6426100000000008,-0.22842000000000026 1.28827,-0.4598800000000004 1.94306,-0.6547900000000012 c0.98676,-0.2954200000000004 1.97961,-0.5786500000000007 2.97855,-0.8314400000000006 c0.6883000000000008,-0.1736 1.39182,-0.2954200000000004 2.08925,-0.4233300000000003 c0.4933800000000006,-0.08832000000000012 0.99285,-0.15532 1.48927,-0.21928000000000017 c0.4050600000000003,-0.054820000000000084 0.81316,-0.09746000000000017 1.22127,-0.13705 c0.45379,-0.04264000000000006 0.9075799999999995,-0.07614000000000008 1.3613600000000001,-0.10964000000000008 c0.29846000000000034,-0.02132000000000004 0.5969300000000006,-0.03959000000000004 0.8953900000000008,-0.054820000000000084 c0.4355100000000004,-0.02132000000000004 0.8710300000000006,-0.03959000000000004 1.30349,-0.054820000000000084 c0.37156000000000033,-0.01218000000000001 0.74616,-0.02132000000000004 1.11772,-0.027410000000000042 c0.8101200000000006,-0.01218000000000001 1.62328,-0.02436000000000004 2.43339,-0.027410000000000042 c0.3959200000000006,0 0.7918400000000007,0.015230000000000025 1.18776,0.027410000000000042 c0.2406,0.0060900000000000095 0.4812,0.015230000000000025 0.7217900000000009,0.027410000000000042 c0.04873000000000005,0 0.1005,0.01827 0.15532,0.027410000000000042 zM37.53897618453979,16.570952693767538 c-0.10355,0.09746000000000017 -0.20101000000000016,0.19796000000000033 -0.3076000000000003,0.28019 c-0.04568000000000007,0.03655000000000001 -0.12182000000000008,0.05787000000000006 -0.17969000000000004,0.04568000000000007 c-0.5786500000000007,-0.09746000000000017 -1.15731,-0.20405 -1.73597,-0.3076000000000003 c-0.8588500000000007,-0.15228000000000017 -1.7176900000000006,-0.30151000000000033 -2.57654,-0.45683 c-0.5877900000000009,-0.10355 -1.17558,-0.21623000000000023 -1.76337,-0.3197800000000004 c-0.6517500000000009,-0.11573000000000017 -1.30654,-0.22537000000000001 -1.95829,-0.3411000000000004 c-0.53602,-0.09441000000000012 -1.06899,-0.19796000000000033 -1.60196,-0.29237000000000046 c-0.4933800000000006,-0.08832000000000012 -0.9898,-0.16750000000000026 -1.48623,-0.25583 c-0.4903300000000003,-0.08528000000000012 -0.97762,-0.17969000000000004 -1.4679600000000002,-0.2649600000000003 c-0.39288000000000073,-0.07005 -0.7857500000000006,-0.13096000000000016 -1.18167,-0.20101000000000016 c-0.3806900000000003,-0.0670000000000001 -0.7583400000000008,-0.13705 -1.13599,-0.20405 c-0.3959200000000006,-0.07005 -0.7948900000000007,-0.13705 -1.19386,-0.2071 c-0.3806900000000003,-0.0670000000000001 -0.7583400000000008,-0.13705 -1.13599,-0.20405 c-0.3959200000000006,-0.07005 -0.7948900000000007,-0.13705 -1.19081,-0.2071 c-0.3776500000000003,-0.0670000000000001 -0.7583400000000008,-0.13705 -1.13599,-0.20405 c-0.3959200000000006,-0.07005 -0.7948900000000007,-0.13705 -1.19081,-0.2071 c-0.3776500000000003,-0.0670000000000001 -0.7583400000000008,-0.13705 -1.13599,-0.20405 c-0.3959200000000006,-0.07005 -0.7948900000000007,-0.13705 -1.19081,-0.2071 c-0.27715,-0.04873000000000005 -0.5573400000000006,-0.09441000000000012 -0.83448,-0.14923000000000017 c-0.03959000000000004,-0.0060900000000000095 -0.07005,-0.04568000000000007 -0.12487000000000002,-0.08223000000000016 c0.21014000000000016,-0.06396000000000009 0.3959200000000006,-0.08832000000000012 0.54211,-0.25583 c7.98239,1.41618 15.98914,2.83236 23.98676,4.2455 zM40.0058761845398,16.570952693767538 c8.0098,-1.41314 16.01655,-2.82323 24.02635,-4.23636 c0.04264000000000006,0.134 0.29237000000000046,0.25583 0.4690200000000003,0.22537000000000001 c0.05086000000000005,0.08585000000000002 -0.01614,0.10081 -0.06426000000000016,0.11147000000000008 c-0.0064000000000000124,0.0014600000000000023 -0.012490000000000006,0.002800000000000005 -0.01797000000000004,0.004260000000000003 c-0.17055,0.03655000000000001 -0.3441500000000004,0.060910000000000075 -0.5177400000000006,0.09137000000000012 c-0.3867800000000004,0.0670000000000001 -0.7766200000000006,0.13705 -1.1634,0.20405 c-0.3959200000000006,0.07005 -0.7948900000000007,0.13705 -1.19081,0.2071 c-0.3806900000000003,0.0670000000000001 -0.7583400000000008,0.13705 -1.13599,0.20405 c-0.3959200000000006,0.07005 -0.7948900000000007,0.13705 -1.19081,0.2071 c-0.3806900000000003,0.0670000000000001 -0.7583400000000008,0.13705 -1.13904,0.20101000000000016 c-0.4020100000000003,0.07005 -0.80403,0.13705 -1.20604,0.21014000000000016 l-1.12381,0.20101000000000016 l-1.20604,0.21014000000000016 l-1.12381,0.20101000000000016 c-0.3867800000000004,0.07005 -0.7766200000000006,0.14009000000000016 -1.1634,0.21014000000000016 c-0.45074,0.07919000000000014 -0.8984400000000008,0.16141000000000033 -1.34918,0.2406 c-0.39288000000000073,0.0670000000000001 -0.7857500000000006,0.13096000000000016 -1.17863,0.20101000000000016 c-0.3806900000000003,0.0670000000000001 -0.7583400000000008,0.13705 -1.13904,0.20405 c-0.3867800000000004,0.07005 -0.7766200000000006,0.13705 -1.16645,0.20405 c-0.3898300000000004,0.07005 -0.7766200000000006,0.13705 -1.16645,0.2071 c-0.3898300000000004,0.07005 -0.7766200000000006,0.13705 -1.16645,0.20405 c-0.3898300000000004,0.07005 -0.7766200000000006,0.13705 -1.16645,0.2071 c-0.3898300000000004,0.07005 -0.7766200000000006,0.13705 -1.16645,0.20405 c-0.38374,0.0670000000000001 -0.76748,0.13096000000000016 -1.15122,0.20101000000000016 c-0.38374,0.0670000000000001 -0.76748,0.14009000000000016 -1.15122,0.2071 c-0.03350000000000005,0.0060900000000000095 -0.08223000000000016,-0.009140000000000013 -0.10964000000000008,-0.030460000000000053 c-0.10964000000000008,-0.09746000000000017 -0.21928000000000017,-0.19796000000000033 -0.3411000000000004,-0.30151000000000033 zM40.75203618453979,49.29540269376756 v-0.20405 c0,-10.437100000000001 0,-20.87725 -0.0030500000000000063,-31.31435 c0,-0.12487000000000002 -0.02436000000000004,-0.24974000000000027 -0.04264000000000006,-0.41115 c8.36613,-1.47709 16.75053,-2.95418 25.15016,-4.4343200000000005 v31.78032 v0.0064000000000000124 c0,0.09959000000000022 0,0.15837 -0.14009000000000016,0.17938 c-0.5147,0.07614000000000008 -1.02331,0.1736 -1.5349599999999999,0.2649600000000003 c-0.4355100000000004,0.07919000000000014 -0.8710300000000006,0.16446000000000033 -1.30654,0.2406 c-0.4933800000000006,0.08832000000000012 -0.9898,0.16446000000000033 -1.48318,0.25278 c-0.4355100000000004,0.07614000000000008 -0.8710300000000006,0.16141000000000033 -1.30654,0.23755 c-0.39288000000000073,0.07005 -0.7857500000000006,0.13096000000000016 -1.17863,0.19796000000000033 c-0.3776500000000003,0.0670000000000001 -0.7583400000000008,0.13705 -1.13599,0.20405 c-0.3959200000000006,0.07005 -0.7948900000000007,0.13705 -1.19081,0.2071 c-0.37156000000000033,0.06396000000000009 -0.7400700000000007,0.12791000000000016 -1.11162,0.19492000000000026 c-0.34719000000000033,0.060910000000000075 -0.6943800000000007,0.12487000000000002 -1.04462,0.18882000000000004 c-0.5025099999999995,0.09137000000000012 -1.00199,0.18578000000000017 -1.5045,0.27105 c-0.5512400000000006,0.09441000000000012 -1.10554,0.18273000000000023 -1.6567800000000008,0.28019 c-0.53602,0.09441000000000012 -1.07203,0.20101000000000016 -1.6111,0.29846000000000034 c-0.6517500000000009,0.11573000000000017 -1.30654,0.21928000000000017 -1.96133,0.3350100000000005 c-0.6426100000000008,0.11268000000000009 -1.28522,0.23755 -1.9278300000000002,0.35024 c-0.5938800000000006,0.10660000000000008 -1.19081,0.20101000000000016 -1.78774,0.3045500000000003 c-0.4355100000000004,0.07614000000000008 -0.8710300000000006,0.16446000000000033 -1.30654,0.24364000000000016 c-0.4903300000000003,0.08528000000000012 -0.98067,0.16750000000000026 -1.471,0.24974000000000027 c-0.14009000000000016,0.02436000000000004 -0.28324,0.04873000000000005 -0.4446500000000003,0.07614000000000008 zM36.80499618453979,49.298442693767555 c-0.36547000000000046,-0.06396000000000009 -0.7126600000000006,-0.12791000000000016 -1.05985,-0.18882000000000004 c-0.33806000000000047,-0.060910000000000075 -0.6791600000000007,-0.11878000000000014 -1.01721,-0.17664000000000016 c-0.3959200000000006,-0.07005 -0.7948900000000007,-0.13705 -1.19081,-0.2071 c-0.3746000000000003,-0.06396000000000009 -0.7492000000000006,-0.13096000000000016 -1.12381,-0.19796000000000033 c-0.4050600000000003,-0.07005 -0.8101200000000006,-0.14314000000000004 -1.21517,-0.21319000000000016 l-1.12381,-0.20101000000000016 c-0.4020100000000003,-0.07005 -0.80403,-0.13705 -1.20299,-0.21014000000000016 c-0.3776500000000003,-0.0670000000000001 -0.7583400000000008,-0.14009000000000016 -1.13599,-0.2071 c-0.3867800000000004,-0.07005 -0.7766200000000006,-0.13705 -1.1634,-0.20405 c-0.3867800000000004,-0.0670000000000001 -0.7766200000000006,-0.13705 -1.1634,-0.2071 c-0.3867800000000004,-0.07005 -0.7766200000000006,-0.13705 -1.1634,-0.20405 c-0.38374,-0.0670000000000001 -0.76748,-0.13096000000000016 -1.15122,-0.19796000000000033 c-0.3441500000000004,-0.060910000000000075 -0.6883000000000008,-0.12182000000000008 -1.0294,-0.18578000000000017 c-0.5025099999999995,-0.09137000000000012 -1.00199,-0.18578000000000017 -1.5045,-0.27105 c-0.5512400000000006,-0.09441000000000012 -1.10554,-0.18273000000000023 -1.6567800000000008,-0.27715 c-0.53602,-0.09441000000000012 -1.07203,-0.20101000000000016 -1.6111,-0.29846000000000034 c-0.6517500000000009,-0.11573000000000017 -1.30654,-0.21928000000000017 -1.96133,-0.3350100000000005 c-0.6426100000000008,-0.11268000000000009 -1.28522,-0.23755 -1.9278300000000002,-0.35024 c-0.53297,-0.09441000000000012 -1.06594,-0.18578000000000017 -1.60196,-0.2741 c-0.07919000000000014,-0.01218000000000001 -0.1005,-0.04568000000000007 -0.09746000000000017,-0.11573000000000017 c0.0020400000000000036,-0.020400000000000033 0.001340000000000003,-0.042330000000000076 0.0006700000000000014,-0.06365000000000008 c-0.0003400000000000005,-0.01035000000000001 -0.0006700000000000014,-0.02071000000000002 -0.0006700000000000014,-0.03076000000000004 v-31.74986 c0.2893300000000003,0.04873000000000005 0.56343,0.09746000000000017 0.84057,0.14619000000000001 c0.4020100000000003,0.07005 0.80403,0.14009000000000016 1.20299,0.21014000000000016 c0.3776500000000003,0.0670000000000001 0.7583400000000008,0.13705 1.13599,0.2071 c0.3867800000000004,0.07005 0.7766200000000006,0.13705 1.1634,0.20405 c0.3867800000000004,0.0670000000000001 0.7766200000000006,0.13705 1.1634,0.20405 c0.3959200000000006,0.07005 0.7948900000000007,0.13705 1.19081,0.2071 c0.3776500000000003,0.0670000000000001 0.7583400000000008,0.13705 1.13599,0.20405 c0.3959200000000006,0.07005 0.7948900000000007,0.14009000000000016 1.19081,0.2071 c0.32588000000000067,0.054820000000000084 0.6547900000000012,0.10964000000000008 0.98067,0.16750000000000026 c0.3959200000000006,0.07005 0.7918400000000007,0.14314000000000004 1.18776,0.21623000000000023 c0.4964300000000003,0.09137000000000012 0.99285,0.18578000000000017 1.49232,0.27105 c0.5512400000000006,0.09746000000000017 1.10554,0.18273000000000023 1.6567800000000008,0.28019 c0.53297,0.09441000000000012 1.0629,0.19796000000000033 1.5958700000000001,0.29237000000000046 c0.39288000000000073,0.07005 0.7857500000000006,0.13096000000000016 1.17863,0.19796000000000033 c0.3776500000000003,0.0670000000000001 0.7583400000000008,0.13705 1.13599,0.20405 c0.3867800000000004,0.07005 0.7766200000000006,0.13705 1.1634,0.20405 c0.3867800000000004,0.0670000000000001 0.7766200000000006,0.13705 1.1634,0.20405 c0.3959200000000006,0.07005 0.7948900000000007,0.13705 1.19081,0.2071 c0.32588000000000067,0.054820000000000084 0.6547900000000012,0.10964000000000008 0.98067,0.16750000000000026 c0.39288000000000073,0.07005 0.78271,0.14619000000000001 1.17558,0.21623000000000023 c0.3776500000000003,0.0670000000000001 0.7583400000000008,0.12791000000000016 1.13904,0.19492000000000026 c0.03350000000000005,0.0060900000000000095 0.06396000000000009,0.027410000000000042 0.07614000000000008,0.03350000000000005 c-0.01218000000000001,0.17969000000000004 -0.03350000000000005,0.34719000000000033 -0.03350000000000005,0.51165 c-0.0020100000000000035,6.9198900000000005 -0.001340000000000003,13.84111 -0.0006700000000000014,20.76182 v0.01401000000000001 v0.01401000000000001 v0.01401000000000001 c0.0003400000000000005,3.46705 0.0006700000000000014,6.93411 0.0006700000000000014,10.40086 c-0.0060900000000000095,0.06396000000000009 -0.0060900000000000095,0.12791000000000016 -0.0060900000000000095,0.20405 zM40.25865618453979,17.28666269376754 c-0.98676,0.5756100000000006 -1.96743,0.5817000000000007 -2.96332,0.030460000000000053 c0.48729,-0.83448 2.1928,-1.02635 2.96332,-0.030460000000000053 zM37.1339161845398,17.62167269376755 c1.10858,0.5847500000000007 2.18366,0.57256 3.26788,-0.01218000000000001 c0.0060900000000000095,0.05177000000000006 0.01827,0.11268000000000009 0.01827,0.1736 v6.38652 c0,8.42399 0,16.84798 0.0030500000000000063,25.27198 c0,0.3806900000000003 -0.17664000000000016,0.6669800000000008 -0.46597000000000033,0.8679800000000006 c-0.6822000000000009,0.4690200000000003 -1.41009,0.4903300000000003 -2.14407,0.13705 c-0.3319600000000005,-0.15837 -0.57256,-0.42029 -0.6639300000000008,-0.7888000000000006 c-0.01218000000000001,-0.05177000000000006 -0.01218000000000001,-0.10660000000000008 -0.01218000000000001,-0.16141000000000033 v-31.69809 c-0.0030500000000000063,-0.05787000000000006 -0.0030500000000000063,-0.10964000000000008 -0.0030500000000000063,-0.17664000000000016 z" data-paper-data="{&quot;isPathIcon&quot;:true}" id="svg_12"/>
            </g>
            <path d="M81.17221618453979,50.68931269376756 v-40.16987 h1.19112 v40.16987 z" data-paper-data="{&quot;isShapeTextSeparator&quot;:true}" fill-rule="nonzero" id="svg_13"/>
        </g>
    </g></g></svg>